<svg width="600" height="536" viewBox="0 0 600 536" fill="none" xmlns="http://www.w3.org/2000/svg">
<g clip-path="url(#clip0_15_51)">
<path d="M52.002 310.52V55.8809H9.0332V13.4004H272.461V115.695H230.469V55.8809H103.271V156.467H212.891V198.947H103.271V310.52H146.729V353H9.0332V310.52H52.002Z" fill="#212121"/>
<path d="M201.916 258.005C201.916 255.759 202.697 253.806 204.26 252.146C205.871 250.485 207.897 249.655 210.339 249.655C212.634 249.655 214.611 250.461 216.271 252.072C217.932 253.684 218.762 255.661 218.762 258.005C218.762 260.349 217.932 262.351 216.271 264.011C214.611 265.622 212.634 266.428 210.339 266.428C207.995 266.428 205.993 265.598 204.333 263.938C202.722 262.277 201.916 260.3 201.916 258.005ZM203.894 340.622V294.479H192.834V282.102H217.81V340.622H228.723V353H192.834V340.622H203.894ZM236.34 294.479V282.102H245.568V271.188L259.484 258.444V282.102H272.595V294.479H259.484V328.903C259.484 334.421 259.777 337.839 260.363 339.157C260.998 340.427 262.536 341.062 264.978 341.062C267.565 341.062 270.104 340.573 272.595 339.597V352.268C269.03 353.537 265.466 354.172 261.901 354.172C257.653 354.172 254.211 353.244 251.574 351.389C248.938 349.484 247.277 347.116 246.594 344.284C245.91 341.452 245.568 336.569 245.568 329.636V294.479H236.34ZM307.458 282.102V290.671C316.394 284.226 324.548 281.003 331.921 281.003C336.511 281.003 340.295 282.102 343.273 284.299C346.301 286.447 348.278 289.108 349.206 292.282C350.134 295.407 350.598 299.997 350.598 306.052V340.622H362.536V353H336.682V306.638C336.682 301.267 335.876 297.775 334.265 296.164C332.653 294.504 330.676 293.674 328.332 293.674C322.18 293.674 315.222 296.677 307.458 302.683V340.622H319.689V353H281.091V340.622H293.542V294.479H281.091V282.102H307.458ZM443.469 321.066H383.85C384.729 327.609 387.316 332.907 391.613 336.96C395.91 341.013 401.403 343.039 408.093 343.039C417.81 343.039 425.5 339.133 431.164 331.32L443.469 336.74C439.465 342.941 434.265 347.556 427.868 350.583C421.472 353.562 414.782 355.051 407.8 355.051C396.96 355.051 387.683 351.682 379.968 344.943C372.302 338.156 368.469 329.025 368.469 317.551C368.469 306.662 372.204 297.702 379.675 290.671C387.194 283.64 395.812 280.124 405.529 280.124C415.051 280.124 423.669 283.566 431.384 290.451C439.147 297.287 443.176 307.492 443.469 321.066ZM429.113 310.959C428.137 305.979 425.549 301.486 421.35 297.482C417.15 293.43 411.999 291.403 405.896 291.403C400.329 291.403 395.568 293.234 391.613 296.896C387.658 300.51 385.241 305.197 384.362 310.959H429.113ZM455.188 353V328.684H467.639V331.027C468.078 334.348 469.86 337.082 472.985 339.23C476.159 341.379 479.895 342.453 484.191 342.453C488.684 342.453 492.272 341.672 494.958 340.109C497.644 338.547 498.986 336.374 498.986 333.591C498.986 330.905 497.863 328.928 495.617 327.658C493.42 326.389 489.025 325.217 482.434 324.143C472.668 322.482 465.686 319.821 461.486 316.159C457.336 312.448 455.261 307.663 455.261 301.804C455.261 295.896 457.531 290.964 462.072 287.009C466.613 283.005 472.595 281.003 480.017 281.003C486.706 281.003 492.468 282.37 497.302 285.104V282.102H509.68V305.612H497.302V301.291C493.542 295.48 488.073 292.575 480.896 292.575C477.233 292.575 474.206 293.381 471.813 294.992C469.47 296.555 468.298 298.654 468.298 301.291C468.298 303.977 469.372 305.832 471.521 306.857C473.718 307.834 478.405 308.884 485.583 310.007C492.468 311.081 497.668 312.351 501.184 313.815C504.699 315.231 507.604 317.624 509.899 320.993C512.243 324.313 513.415 328.195 513.415 332.639C513.415 339.23 510.876 344.479 505.798 348.386C500.769 352.243 494.226 354.172 486.169 354.172C478.601 354.172 472.424 352.463 467.639 349.045V353H455.188ZM523.889 353V328.684H536.34V331.027C536.779 334.348 538.562 337.082 541.687 339.23C544.86 341.379 548.596 342.453 552.893 342.453C557.385 342.453 560.974 341.672 563.659 340.109C566.345 338.547 567.688 336.374 567.688 333.591C567.688 330.905 566.564 328.928 564.318 327.658C562.121 326.389 557.727 325.217 551.135 324.143C541.369 322.482 534.387 319.821 530.188 316.159C526.037 312.448 523.962 307.663 523.962 301.804C523.962 295.896 526.232 290.964 530.773 287.009C535.314 283.005 541.296 281.003 548.718 281.003C555.407 281.003 561.169 282.37 566.003 285.104V282.102H578.381V305.612H566.003V301.291C562.243 295.48 556.774 292.575 549.597 292.575C545.935 292.575 542.907 293.381 540.515 294.992C538.171 296.555 536.999 298.654 536.999 301.291C536.999 303.977 538.073 305.832 540.222 306.857C542.419 307.834 547.106 308.884 554.284 310.007C561.169 311.081 566.369 312.351 569.885 313.815C573.4 315.231 576.306 317.624 578.601 320.993C580.944 324.313 582.116 328.195 582.116 332.639C582.116 339.23 579.577 344.479 574.499 348.386C569.47 352.243 562.927 354.172 554.87 354.172C547.302 354.172 541.125 352.463 536.34 349.045V353H523.889Z" fill="#212121"/>
<path d="M412 496V385.75H426.25C431.5 385.75 435.975 386.3 439.675 387.4C443.425 388.5 446.475 390.225 448.825 392.575C451.225 394.925 452.975 397.95 454.075 401.65C455.225 405.35 455.8 409.8 455.8 415C455.8 418.45 455.5 421.425 454.9 423.925C454.3 426.425 453.275 428.75 451.825 430.9C450.375 433.05 448.325 435.35 445.675 437.8C449.275 439.8 452.05 443.175 454 447.925C456 452.625 457 458.25 457 464.8C457 469.75 456.425 474.175 455.275 478.075C454.175 481.925 452.55 485.175 450.4 487.825C448.3 490.475 445.7 492.5 442.6 493.9C439.5 495.3 435.95 496 431.95 496H412ZM428.2 479.95C430.4 479.95 432.25 479.65 433.75 479.05C435.3 478.45 436.55 477.475 437.5 476.125C438.45 474.775 439.125 473.025 439.525 470.875C439.975 468.725 440.2 466.1 440.2 463C440.2 458.85 439.8 455.55 439 453.1C438.25 450.6 437 448.8 435.25 447.7C433.5 446.6 431.15 446.05 428.2 446.05V479.95ZM428.2 431.2C431.05 431.2 433.35 430.7 435.1 429.7C436.85 428.7 438.125 427.125 438.925 424.975C439.775 422.775 440.2 419.95 440.2 416.5C440.2 411.3 439.25 407.55 437.35 405.25C435.5 402.95 432.45 401.8 428.2 401.8V431.2ZM466.639 496V385.75H481.789V496H466.639ZM511.445 497.2C507.545 497.2 504.145 496.3 501.245 494.5C498.345 492.7 496.095 490.175 494.495 486.925C492.895 483.675 492.095 479.9 492.095 475.6V434.35C492.095 430 492.895 426.225 494.495 423.025C496.095 419.775 498.345 417.25 501.245 415.45C504.145 413.65 507.545 412.75 511.445 412.75C515.295 412.75 518.67 413.65 521.57 415.45C524.52 417.2 526.82 419.675 528.47 422.875C530.12 426.025 530.945 429.7 530.945 433.9V476.05C530.945 480.25 530.12 483.95 528.47 487.15C526.87 490.3 524.595 492.775 521.645 494.575C518.745 496.325 515.345 497.2 511.445 497.2ZM511.445 483.85C513.195 483.85 514.495 483.15 515.345 481.75C516.245 480.35 516.695 478.3 516.695 475.6V434.35C516.695 431.55 516.245 429.45 515.345 428.05C514.495 426.65 513.195 425.95 511.445 425.95C508.045 425.95 506.345 428.75 506.345 434.35V475.6C506.345 477.4 506.52 478.925 506.87 480.175C507.27 481.375 507.845 482.3 508.595 482.95C509.395 483.55 510.345 483.85 511.445 483.85ZM560.839 525.4C553.239 525.4 547.289 524.05 542.989 521.35C538.689 518.65 536.539 514.9 536.539 510.1C536.539 507.45 537.389 505.175 539.089 503.275C540.789 501.425 543.914 499.325 548.464 496.975C545.564 495.925 543.289 494.45 541.639 492.55C540.039 490.6 539.239 488.45 539.239 486.1C539.239 483.7 540.064 481.4 541.714 479.2C543.414 477 545.714 475.175 548.614 473.725C545.964 471.925 543.864 469.3 542.314 465.85C540.764 462.4 539.989 458.6 539.989 454.45V436.15C539.989 428.85 541.689 423.125 545.089 418.975C548.489 414.825 553.189 412.75 559.189 412.75C565.639 412.75 570.689 415.25 574.339 420.25C576.689 417.9 578.964 416.075 581.164 414.775C583.414 413.425 585.289 412.75 586.789 412.75V426.25C584.939 426.25 583.214 426.425 581.614 426.775C580.064 427.075 578.789 427.525 577.789 428.125C578.089 428.775 578.314 429.55 578.464 430.45C578.614 431.3 578.689 432.2 578.689 433.15V452.65C578.689 455.95 578.439 458.9 577.939 461.5C577.439 464.1 576.664 466.35 575.614 468.25C574.614 470.15 573.314 471.725 571.714 472.975C570.164 474.225 568.289 475.15 566.089 475.75C563.939 476.35 561.489 476.65 558.739 476.65C558.739 476.65 558.689 476.65 558.589 476.65C558.489 476.65 558.364 476.65 558.214 476.65C558.064 476.65 557.889 476.65 557.689 476.65C557.489 476.6 557.289 476.575 557.089 476.575C556.939 476.525 556.789 476.5 556.639 476.5C556.489 476.45 556.364 476.425 556.264 476.425C555.714 476.925 555.239 477.55 554.839 478.3C554.439 479.05 554.239 479.7 554.239 480.25C554.239 481.35 555.214 482.35 557.164 483.25C559.164 484.1 562.039 484.8 565.789 485.35C569.489 485.85 572.664 486.6 575.314 487.6C577.964 488.55 580.139 489.8 581.839 491.35C583.539 492.9 584.789 494.75 585.589 496.9C586.389 499.05 586.789 501.55 586.789 504.4C586.789 509 585.814 512.85 583.864 515.95C581.914 519.1 579.014 521.45 575.164 523C571.314 524.6 566.539 525.4 560.839 525.4ZM561.139 512.65C564.789 512.65 567.614 512.15 569.614 511.15C571.664 510.2 572.689 508.85 572.689 507.1C572.689 505.65 572.014 504.425 570.664 503.425C569.314 502.475 567.289 501.75 564.589 501.25L556.714 499.75C554.814 500.85 553.414 501.95 552.514 503.05C551.664 504.2 551.239 505.5 551.239 506.95C551.239 508.9 552.039 510.325 553.639 511.225C555.239 512.175 557.739 512.65 561.139 512.65ZM559.189 464.05C560.639 464.05 561.764 463.4 562.564 462.1C563.414 460.8 563.839 459 563.839 456.7V434.2C563.839 431.85 563.414 430.025 562.564 428.725C561.764 427.375 560.639 426.7 559.189 426.7C557.789 426.7 556.714 427.35 555.964 428.65C555.214 429.95 554.839 431.8 554.839 434.2V456.7C554.839 458.3 554.989 459.65 555.289 460.75C555.639 461.85 556.139 462.675 556.789 463.225C557.439 463.775 558.239 464.05 559.189 464.05Z" fill="#212121"/>
<rect x="64" y="383" width="32" height="120" rx="16" fill="#EF6C00"/>
<rect x="30" y="396" width="28" height="94" rx="14" fill="#EF6C00"/>
<rect x="289.438" y="433.608" width="17.0082" height="182.443" rx="8.50412" transform="rotate(89.5735 289.438 433.608)" fill="#EF6C00"/>
<rect x="10" y="419" width="14" height="47" rx="7" fill="#EF6C00"/>
<rect x="301" y="383" width="32" height="120" rx="16" fill="#EF6C00"/>
<rect x="338.999" y="396.24" width="28" height="94" rx="14" fill="#EF6C00"/>
<rect x="372.995" y="420.42" width="14" height="47" rx="7" fill="#EF6C00"/>
</g>
<defs>
<clipPath id="clip0_15_51">
<rect width="600" height="536" fill="white"/>
</clipPath>
</defs>
</svg>
