<svg width="587" height="656" viewBox="0 0 587 656" fill="none" xmlns="http://www.w3.org/2000/svg">
<path d="M52.002 430.52V175.881H9.0332V133.4H272.461V235.695H230.469V175.881H103.271V276.467H212.891V318.947H103.271V430.52H146.729V473H9.0332V430.52H52.002Z" fill="#212121"/>
<path d="M201.916 378.005C201.916 375.759 202.697 373.806 204.26 372.146C205.871 370.485 207.897 369.655 210.339 369.655C212.634 369.655 214.611 370.461 216.271 372.072C217.932 373.684 218.762 375.661 218.762 378.005C218.762 380.349 217.932 382.351 216.271 384.011C214.611 385.622 212.634 386.428 210.339 386.428C207.995 386.428 205.993 385.598 204.333 383.938C202.722 382.277 201.916 380.3 201.916 378.005ZM203.894 460.622V414.479H192.834V402.102H217.81V460.622H228.723V473H192.834V460.622H203.894ZM236.34 414.479V402.102H245.568V391.188L259.484 378.444V402.102H272.595V414.479H259.484V448.903C259.484 454.421 259.777 457.839 260.363 459.157C260.998 460.427 262.536 461.062 264.978 461.062C267.565 461.062 270.104 460.573 272.595 459.597V472.268C269.03 473.537 265.466 474.172 261.901 474.172C257.653 474.172 254.211 473.244 251.574 471.389C248.938 469.484 247.277 467.116 246.594 464.284C245.91 461.452 245.568 456.569 245.568 449.636V414.479H236.34ZM307.458 402.102V410.671C316.394 404.226 324.548 401.003 331.921 401.003C336.511 401.003 340.295 402.102 343.273 404.299C346.301 406.447 348.278 409.108 349.206 412.282C350.134 415.407 350.598 419.997 350.598 426.052V460.622H362.536V473H336.682V426.638C336.682 421.267 335.876 417.775 334.265 416.164C332.653 414.504 330.676 413.674 328.332 413.674C322.18 413.674 315.222 416.677 307.458 422.683V460.622H319.689V473H281.091V460.622H293.542V414.479H281.091V402.102H307.458ZM443.469 441.066H383.85C384.729 447.609 387.316 452.907 391.613 456.96C395.91 461.013 401.403 463.039 408.093 463.039C417.81 463.039 425.5 459.133 431.164 451.32L443.469 456.74C439.465 462.941 434.265 467.556 427.868 470.583C421.472 473.562 414.782 475.051 407.8 475.051C396.96 475.051 387.683 471.682 379.968 464.943C372.302 458.156 368.469 449.025 368.469 437.551C368.469 426.662 372.204 417.702 379.675 410.671C387.194 403.64 395.812 400.124 405.529 400.124C415.051 400.124 423.669 403.566 431.384 410.451C439.147 417.287 443.176 427.492 443.469 441.066ZM429.113 430.959C428.137 425.979 425.549 421.486 421.35 417.482C417.15 413.43 411.999 411.403 405.896 411.403C400.329 411.403 395.568 413.234 391.613 416.896C387.658 420.51 385.241 425.197 384.362 430.959H429.113ZM455.188 473V448.684H467.639V451.027C468.078 454.348 469.86 457.082 472.985 459.23C476.159 461.379 479.895 462.453 484.191 462.453C488.684 462.453 492.272 461.672 494.958 460.109C497.644 458.547 498.986 456.374 498.986 453.591C498.986 450.905 497.863 448.928 495.617 447.658C493.42 446.389 489.025 445.217 482.434 444.143C472.668 442.482 465.686 439.821 461.486 436.159C457.336 432.448 455.261 427.663 455.261 421.804C455.261 415.896 457.531 410.964 462.072 407.009C466.613 403.005 472.595 401.003 480.017 401.003C486.706 401.003 492.468 402.37 497.302 405.104V402.102H509.68V425.612H497.302V421.291C493.542 415.48 488.073 412.575 480.896 412.575C477.233 412.575 474.206 413.381 471.813 414.992C469.47 416.555 468.298 418.654 468.298 421.291C468.298 423.977 469.372 425.832 471.521 426.857C473.718 427.834 478.405 428.884 485.583 430.007C492.468 431.081 497.668 432.351 501.184 433.815C504.699 435.231 507.604 437.624 509.899 440.993C512.243 444.313 513.415 448.195 513.415 452.639C513.415 459.23 510.876 464.479 505.798 468.386C500.769 472.243 494.226 474.172 486.169 474.172C478.601 474.172 472.424 472.463 467.639 469.045V473H455.188ZM523.889 473V448.684H536.34V451.027C536.779 454.348 538.562 457.082 541.687 459.23C544.86 461.379 548.596 462.453 552.893 462.453C557.385 462.453 560.974 461.672 563.659 460.109C566.345 458.547 567.688 456.374 567.688 453.591C567.688 450.905 566.564 448.928 564.318 447.658C562.121 446.389 557.727 445.217 551.135 444.143C541.369 442.482 534.387 439.821 530.188 436.159C526.037 432.448 523.962 427.663 523.962 421.804C523.962 415.896 526.232 410.964 530.773 407.009C535.314 403.005 541.296 401.003 548.718 401.003C555.407 401.003 561.169 402.37 566.003 405.104V402.102H578.381V425.612H566.003V421.291C562.243 415.48 556.774 412.575 549.597 412.575C545.935 412.575 542.907 413.381 540.515 414.992C538.171 416.555 536.999 418.654 536.999 421.291C536.999 423.977 538.073 425.832 540.222 426.857C542.419 427.834 547.106 428.884 554.284 430.007C561.169 431.081 566.369 432.351 569.885 433.815C573.4 435.231 576.306 437.624 578.601 440.993C580.944 444.313 582.116 448.195 582.116 452.639C582.116 459.23 579.577 464.479 574.499 468.386C569.47 472.243 562.927 474.172 554.87 474.172C547.302 474.172 541.125 472.463 536.34 469.045V473H523.889Z" fill="#212121"/>
<path d="M412 616V505.75H426.25C431.5 505.75 435.975 506.3 439.675 507.4C443.425 508.5 446.475 510.225 448.825 512.575C451.225 514.925 452.975 517.95 454.075 521.65C455.225 525.35 455.8 529.8 455.8 535C455.8 538.45 455.5 541.425 454.9 543.925C454.3 546.425 453.275 548.75 451.825 550.9C450.375 553.05 448.325 555.35 445.675 557.8C449.275 559.8 452.05 563.175 454 567.925C456 572.625 457 578.25 457 584.8C457 589.75 456.425 594.175 455.275 598.075C454.175 601.925 452.55 605.175 450.4 607.825C448.3 610.475 445.7 612.5 442.6 613.9C439.5 615.3 435.95 616 431.95 616H412ZM428.2 599.95C430.4 599.95 432.25 599.65 433.75 599.05C435.3 598.45 436.55 597.475 437.5 596.125C438.45 594.775 439.125 593.025 439.525 590.875C439.975 588.725 440.2 586.1 440.2 583C440.2 578.85 439.8 575.55 439 573.1C438.25 570.6 437 568.8 435.25 567.7C433.5 566.6 431.15 566.05 428.2 566.05V599.95ZM428.2 551.2C431.05 551.2 433.35 550.7 435.1 549.7C436.85 548.7 438.125 547.125 438.925 544.975C439.775 542.775 440.2 539.95 440.2 536.5C440.2 531.3 439.25 527.55 437.35 525.25C435.5 522.95 432.45 521.8 428.2 521.8V551.2ZM466.639 616V505.75H481.789V616H466.639ZM511.445 617.2C507.545 617.2 504.145 616.3 501.245 614.5C498.345 612.7 496.095 610.175 494.495 606.925C492.895 603.675 492.095 599.9 492.095 595.6V554.35C492.095 550 492.895 546.225 494.495 543.025C496.095 539.775 498.345 537.25 501.245 535.45C504.145 533.65 507.545 532.75 511.445 532.75C515.295 532.75 518.67 533.65 521.57 535.45C524.52 537.2 526.82 539.675 528.47 542.875C530.12 546.025 530.945 549.7 530.945 553.9V596.05C530.945 600.25 530.12 603.95 528.47 607.15C526.87 610.3 524.595 612.775 521.645 614.575C518.745 616.325 515.345 617.2 511.445 617.2ZM511.445 603.85C513.195 603.85 514.495 603.15 515.345 601.75C516.245 600.35 516.695 598.3 516.695 595.6V554.35C516.695 551.55 516.245 549.45 515.345 548.05C514.495 546.65 513.195 545.95 511.445 545.95C508.045 545.95 506.345 548.75 506.345 554.35V595.6C506.345 597.4 506.52 598.925 506.87 600.175C507.27 601.375 507.845 602.3 508.595 602.95C509.395 603.55 510.345 603.85 511.445 603.85ZM560.839 645.4C553.239 645.4 547.289 644.05 542.989 641.35C538.689 638.65 536.539 634.9 536.539 630.1C536.539 627.45 537.389 625.175 539.089 623.275C540.789 621.425 543.914 619.325 548.464 616.975C545.564 615.925 543.289 614.45 541.639 612.55C540.039 610.6 539.239 608.45 539.239 606.1C539.239 603.7 540.064 601.4 541.714 599.2C543.414 597 545.714 595.175 548.614 593.725C545.964 591.925 543.864 589.3 542.314 585.85C540.764 582.4 539.989 578.6 539.989 574.45V556.15C539.989 548.85 541.689 543.125 545.089 538.975C548.489 534.825 553.189 532.75 559.189 532.75C565.639 532.75 570.689 535.25 574.339 540.25C576.689 537.9 578.964 536.075 581.164 534.775C583.414 533.425 585.289 532.75 586.789 532.75V546.25C584.939 546.25 583.214 546.425 581.614 546.775C580.064 547.075 578.789 547.525 577.789 548.125C578.089 548.775 578.314 549.55 578.464 550.45C578.614 551.3 578.689 552.2 578.689 553.15V572.65C578.689 575.95 578.439 578.9 577.939 581.5C577.439 584.1 576.664 586.35 575.614 588.25C574.614 590.15 573.314 591.725 571.714 592.975C570.164 594.225 568.289 595.15 566.089 595.75C563.939 596.35 561.489 596.65 558.739 596.65C558.739 596.65 558.689 596.65 558.589 596.65C558.489 596.65 558.364 596.65 558.214 596.65C558.064 596.65 557.889 596.65 557.689 596.65C557.489 596.6 557.289 596.575 557.089 596.575C556.939 596.525 556.789 596.5 556.639 596.5C556.489 596.45 556.364 596.425 556.264 596.425C555.714 596.925 555.239 597.55 554.839 598.3C554.439 599.05 554.239 599.7 554.239 600.25C554.239 601.35 555.214 602.35 557.164 603.25C559.164 604.1 562.039 604.8 565.789 605.35C569.489 605.85 572.664 606.6 575.314 607.6C577.964 608.55 580.139 609.8 581.839 611.35C583.539 612.9 584.789 614.75 585.589 616.9C586.389 619.05 586.789 621.55 586.789 624.4C586.789 629 585.814 632.85 583.864 635.95C581.914 639.1 579.014 641.45 575.164 643C571.314 644.6 566.539 645.4 560.839 645.4ZM561.139 632.65C564.789 632.65 567.614 632.15 569.614 631.15C571.664 630.2 572.689 628.85 572.689 627.1C572.689 625.65 572.014 624.425 570.664 623.425C569.314 622.475 567.289 621.75 564.589 621.25L556.714 619.75C554.814 620.85 553.414 621.95 552.514 623.05C551.664 624.2 551.239 625.5 551.239 626.95C551.239 628.9 552.039 630.325 553.639 631.225C555.239 632.175 557.739 632.65 561.139 632.65ZM559.189 584.05C560.639 584.05 561.764 583.4 562.564 582.1C563.414 580.8 563.839 579 563.839 576.7V554.2C563.839 551.85 563.414 550.025 562.564 548.725C561.764 547.375 560.639 546.7 559.189 546.7C557.789 546.7 556.714 547.35 555.964 548.65C555.214 549.95 554.839 551.8 554.839 554.2V576.7C554.839 578.3 554.989 579.65 555.289 580.75C555.639 581.85 556.139 582.675 556.789 583.225C557.439 583.775 558.239 584.05 559.189 584.05Z" fill="#212121"/>
<rect x="64" y="503" width="32" height="120" rx="16" fill="#EF6C00"/>
<rect x="30" y="516" width="28" height="94" rx="14" fill="#EF6C00"/>
<rect x="289.438" y="553.608" width="17.0082" height="182.443" rx="8.50412" transform="rotate(89.5735 289.438 553.608)" fill="#EF6C00"/>
<rect x="10" y="539" width="14" height="47" rx="7" fill="#EF6C00"/>
<rect x="301" y="503" width="32" height="120" rx="16" fill="#EF6C00"/>
<rect x="338.999" y="516.24" width="28" height="94" rx="14" fill="#EF6C00"/>
<rect x="372.995" y="540.42" width="14" height="47" rx="7" fill="#EF6C00"/>
</svg>
