<svg width="603" height="207" viewBox="0 0 603 207" fill="none" xmlns="http://www.w3.org/2000/svg">
<path d="M403.8 162V37.05H419.95C425.9 37.05 430.972 37.6733 435.165 38.92C439.415 40.1667 442.872 42.1217 445.535 44.785C448.255 47.4483 450.238 50.8767 451.485 55.07C452.788 59.2633 453.44 64.3067 453.44 70.2C453.44 74.11 453.1 77.4817 452.42 80.315C451.74 83.1483 450.578 85.7833 448.935 88.22C447.292 90.6567 444.968 93.2633 441.965 96.04C446.045 98.3067 449.19 102.132 451.4 107.515C453.667 112.842 454.8 119.217 454.8 126.64C454.8 132.25 454.148 137.265 452.845 141.685C451.598 146.048 449.757 149.732 447.32 152.735C444.94 155.738 441.993 158.033 438.48 159.62C434.967 161.207 430.943 162 426.41 162H403.8ZM422.16 143.81C424.653 143.81 426.75 143.47 428.45 142.79C430.207 142.11 431.623 141.005 432.7 139.475C433.777 137.945 434.542 135.962 434.995 133.525C435.505 131.088 435.76 128.113 435.76 124.6C435.76 119.897 435.307 116.157 434.4 113.38C433.55 110.547 432.133 108.507 430.15 107.26C428.167 106.013 425.503 105.39 422.16 105.39V143.81ZM422.16 88.56C425.39 88.56 427.997 87.9933 429.98 86.86C431.963 85.7267 433.408 83.9417 434.315 81.505C435.278 79.0117 435.76 75.81 435.76 71.9C435.76 66.0067 434.683 61.7567 432.53 59.15C430.433 56.5433 426.977 55.24 422.16 55.24V88.56ZM465.724 162V37.05H482.894V162H465.724ZM516.505 163.36C512.085 163.36 508.231 162.34 504.945 160.3C501.658 158.26 499.108 155.398 497.295 151.715C495.481 148.032 494.575 143.753 494.575 138.88V92.13C494.575 87.2 495.481 82.9217 497.295 79.295C499.108 75.6117 501.658 72.75 504.945 70.71C508.231 68.67 512.085 67.65 516.505 67.65C520.868 67.65 524.693 68.67 527.98 70.71C531.323 72.6933 533.93 75.4983 535.8 79.125C537.67 82.695 538.605 86.86 538.605 91.62V139.39C538.605 144.15 537.67 148.343 535.8 151.97C533.986 155.54 531.408 158.345 528.065 160.385C524.778 162.368 520.925 163.36 516.505 163.36ZM516.505 148.23C518.488 148.23 519.961 147.437 520.925 145.85C521.945 144.263 522.455 141.94 522.455 138.88V92.13C522.455 88.9567 521.945 86.5767 520.925 84.99C519.961 83.4033 518.488 82.61 516.505 82.61C512.651 82.61 510.725 85.7833 510.725 92.13V138.88C510.725 140.92 510.923 142.648 511.32 144.065C511.773 145.425 512.425 146.473 513.275 147.21C514.181 147.89 515.258 148.23 516.505 148.23ZM572.484 195.32C563.87 195.32 557.127 193.79 552.254 190.73C547.38 187.67 544.944 183.42 544.944 177.98C544.944 174.977 545.907 172.398 547.834 170.245C549.76 168.148 553.302 165.768 558.459 163.105C555.172 161.915 552.594 160.243 550.724 158.09C548.91 155.88 548.004 153.443 548.004 150.78C548.004 148.06 548.939 145.453 550.809 142.96C552.735 140.467 555.342 138.398 558.629 136.755C555.625 134.715 553.245 131.74 551.489 127.83C549.732 123.92 548.854 119.613 548.854 114.91V94.17C548.854 85.8967 550.78 79.4083 554.634 74.705C558.487 70.0017 563.814 67.65 570.614 67.65C577.924 67.65 583.647 70.4833 587.784 76.15C590.447 73.4867 593.025 71.4183 595.519 69.945C598.069 68.415 600.194 67.65 601.894 67.65V82.95C599.797 82.95 597.842 83.1483 596.029 83.545C594.272 83.885 592.827 84.395 591.694 85.075C592.034 85.8117 592.289 86.69 592.459 87.71C592.629 88.6733 592.714 89.6933 592.714 90.77V112.87C592.714 116.61 592.43 119.953 591.864 122.9C591.297 125.847 590.419 128.397 589.229 130.55C588.095 132.703 586.622 134.488 584.809 135.905C583.052 137.322 580.927 138.37 578.434 139.05C575.997 139.73 573.22 140.07 570.104 140.07C570.104 140.07 570.047 140.07 569.934 140.07C569.82 140.07 569.679 140.07 569.509 140.07C569.339 140.07 569.14 140.07 568.914 140.07C568.687 140.013 568.46 139.985 568.234 139.985C568.064 139.928 567.894 139.9 567.724 139.9C567.554 139.843 567.412 139.815 567.299 139.815C566.675 140.382 566.137 141.09 565.684 141.94C565.23 142.79 565.004 143.527 565.004 144.15C565.004 145.397 566.109 146.53 568.319 147.55C570.585 148.513 573.844 149.307 578.094 149.93C582.287 150.497 585.885 151.347 588.889 152.48C591.892 153.557 594.357 154.973 596.284 156.73C598.21 158.487 599.627 160.583 600.534 163.02C601.44 165.457 601.894 168.29 601.894 171.52C601.894 176.733 600.789 181.097 598.579 184.61C596.369 188.18 593.082 190.843 588.719 192.6C584.355 194.413 578.944 195.32 572.484 195.32ZM572.824 180.87C576.96 180.87 580.162 180.303 582.429 179.17C584.752 178.093 585.914 176.563 585.914 174.58C585.914 172.937 585.149 171.548 583.619 170.415C582.089 169.338 579.794 168.517 576.734 167.95L567.809 166.25C565.655 167.497 564.069 168.743 563.049 169.99C562.085 171.293 561.604 172.767 561.604 174.41C561.604 176.62 562.51 178.235 564.324 179.255C566.137 180.332 568.97 180.87 572.824 180.87ZM570.614 125.79C572.257 125.79 573.532 125.053 574.439 123.58C575.402 122.107 575.884 120.067 575.884 117.46V91.96C575.884 89.2967 575.402 87.2283 574.439 85.755C573.532 84.225 572.257 83.46 570.614 83.46C569.027 83.46 567.809 84.1967 566.959 85.67C566.109 87.1433 565.684 89.24 565.684 91.96V117.46C565.684 119.273 565.854 120.803 566.194 122.05C566.59 123.297 567.157 124.232 567.894 124.855C568.63 125.478 569.537 125.79 570.614 125.79Z" fill="#212121"/>
<rect x="54" y="43" width="32" height="120" rx="16" fill="#EF6C00"/>
<rect x="20" y="56" width="28" height="94" rx="14" fill="#EF6C00"/>
<rect x="279.438" y="93.6082" width="17.0082" height="182.443" rx="8.50412" transform="rotate(89.5735 279.438 93.6082)" fill="#EF6C00"/>
<rect y="79" width="14" height="47" rx="7" fill="#EF6C00"/>
<rect x="291" y="43" width="32" height="120" rx="16" fill="#EF6C00"/>
<rect x="328.999" y="56.2399" width="28" height="94" rx="14" fill="#EF6C00"/>
<rect x="362.995" y="80.4199" width="14" height="47" rx="7" fill="#EF6C00"/>
</svg>
